<?xml version="1.0" standalone="no"?>
<!DOCTYPE svg PUBLIC "-//W3C//DTD SVG 20010904//EN"
 "http://www.w3.org/TR/2001/REC-SVG-20010904/DTD/svg10.dtd">
<svg version="1.0" xmlns="http://www.w3.org/2000/svg"
 width="500.000000pt" height="500.000000pt" viewBox="0 0 500.000000 500.000000"
 preserveAspectRatio="xMidYMid meet">

<g transform="translate(0.000000,500.000000) scale(0.100000,-0.100000)"
fill="#000000" stroke="none">
<path d="M0 2500 l0 -2500 2500 0 2500 0 0 2500 0 2500 -2500 0 -2500 0 0
-2500z m1494 527 c-1 -9 -5 -33 -8 -52 l-7 -35 146 0 145 0 0 -85 0 -85 190 0
190 0 0 -95 0 -95 -245 0 -245 0 0 80 0 80 -108 0 -107 0 -55 -320 -55 -320
-102 0 c-86 0 -103 3 -103 15 0 9 22 147 50 308 27 161 50 298 50 305 0 8 -23
12 -80 12 l-80 0 0 100 0 100 99 0 99 0 6 38 c14 77 7 73 119 70 90 -3 102 -5
101 -21z m1156 -32 l0 -45 113 0 c134 0 171 -14 235 -84 71 -77 122 -217 122
-336 0 -131 -60 -281 -141 -354 -63 -56 -124 -76 -236 -76 l-83 0 0 105 0 105
65 0 c37 0 78 6 93 14 114 60 145 240 60 357 -37 51 -79 69 -163 69 l-65 0 0
-119 c0 -218 -39 -356 -124 -444 -49 -50 -105 -73 -208 -83 l-68 -7 0 105 0
105 48 7 c60 8 87 26 114 79 18 36 22 64 26 200 l5 157 -102 0 -101 0 0 100 0
100 100 0 100 0 0 45 0 45 105 0 105 0 0 -45z m1380 -65 l0 -110 210 0 210 0
0 -110 0 -110 -354 0 c-321 0 -356 -2 -372 -17 -48 -48 -58 -152 -21 -218 l23
-40 364 -5 365 -5 0 -105 0 -105 -380 0 c-377 0 -380 0 -427 23 -59 29 -113
88 -147 161 -23 50 -26 68 -26 166 0 98 3 116 26 166 51 108 131 174 226 185
101 11 93 1 93 118 0 56 3 106 7 109 3 4 51 7 105 7 l98 0 0 -110z m-3172 43
c4 -10 7 -74 7 -143 0 -113 -2 -129 -23 -162 -29 -47 -56 -56 -90 -31 -40 30
-39 43 3 43 32 0 36 3 33 23 -3 19 -9 22 -58 24 -54 3 -56 2 -83 -37 -26 -39
-71 -70 -83 -57 -3 3 3 30 15 61 14 38 22 92 27 176 l7 120 119 0 c104 0 120
-2 126 -17z m2505 -153 l76 -160 -115 0 -115 0 -45 98 c-26 53 -59 125 -75
160 l-28 62 113 0 112 0 77 -160z m-2633 -265 c0 -20 -5 -25 -25 -25 -23 0
-25 -4 -25 -45 0 -43 1 -45 30 -45 25 0 30 -4 30 -25 0 -21 -5 -25 -30 -25
l-30 0 0 -90 0 -90 -35 0 -35 0 0 90 0 90 -35 0 c-31 0 -35 3 -35 25 0 22 4
25 35 25 35 0 35 0 35 45 0 43 -1 45 -30 45 -22 0 -30 5 -30 18 0 29 8 32 97
32 82 0 83 0 83 -25z m174 -12 c27 -181 9 -286 -57 -327 -12 -8 -23 -6 -44 10
-41 30 -40 44 1 44 l36 0 0 155 0 155 29 0 c26 0 30 -4 35 -37z m-86 -120 l3
-133 -31 0 -30 0 0 136 0 135 28 -3 27 -3 3 -132z m852 -2 c0 -4 18 -29 40
-53 52 -60 88 -68 289 -68 l161 0 0 -100 0 -100 -188 0 c-211 0 -280 12 -344
59 -48 36 -98 100 -149 196 l-41 75 116 0 c64 0 116 -4 116 -9z m-1106 -302
c25 -20 27 -20 24 -3 -2 11 4 20 13 22 14 3 16 -4 11 -45 -2 -26 -6 -50 -8
-52 -2 -3 -14 5 -27 17 -29 27 -40 28 -32 2 5 -15 2 -20 -12 -20 -16 0 -18 7
-16 48 1 26 2 48 2 50 2 7 22 -1 45 -19z m259 0 c9 0 27 1 40 1 12 0 41 0 64
0 45 1 62 -13 43 -34 -8 -11 -8 -15 1 -18 7 -2 10 -11 7 -19 -4 -11 -16 -14
-42 -11 -35 4 -36 5 -20 23 17 19 16 44 -1 31 -5 -4 -17 -20 -25 -37 -16 -29
-48 -42 -42 -17 1 7 -4 19 -11 26 -11 12 -15 11 -25 -5 -14 -22 -42 -25 -60
-7 -9 9 -12 9 -12 0 0 -7 -7 -12 -15 -12 -8 0 -15 7 -15 15 0 8 7 15 15 15 8
0 15 6 15 14 0 23 31 48 49 40 9 -4 24 -6 34 -5z m-128 -44 c0 -26 -3 -30 -29
-30 -36 0 -56 26 -36 50 8 9 24 15 39 13 22 -2 26 -8 26 -33z"/>
<path d="M687 2934 c-4 -4 -7 -16 -7 -26 0 -15 8 -18 56 -18 52 0 55 1 52 23
-3 19 -10 22 -48 25 -25 2 -49 0 -53 -4z"/>
<path d="M680 2804 c0 -24 2 -25 53 -22 45 3 52 6 55 26 3 21 0 22 -52 22 -53
0 -56 -1 -56 -26z"/>
<path d="M661 2074 c0 -11 3 -14 6 -6 3 7 2 16 -1 19 -3 4 -6 -2 -5 -13z"/>
</g>
</svg>
